<svg xmlns="http://www.w3.org/2000/svg" viewBox="0 0 1000 600">
  <defs>
    <!-- Enhanced neon glow effect -->
    <filter id="neon-glow" x="-50%" y="-50%" width="200%" height="200%">
      <feGaussianBlur in="SourceGraphic" stdDeviation="2" result="blur"/>
      <feColorMatrix in="blur" type="matrix" values="0 0 0 0 1   0 0 0 0 0   0 0 0 0 0  0 0 0 15 -2" result="glow"/>
      <feMerge>
        <feMergeNode in="glow"/>
        <feMergeNode in="SourceGraphic"/>
      </feMerge>
    </filter>

    <!-- Arrow marker -->
    <marker id="arrowhead" markerWidth="10" markerHeight="7" refX="9" refY="3.5" orient="auto">
      <polygon points="0 0, 10 3.5, 0 7" fill="#ffffff"/>
    </marker>
  </defs>

  <!-- Background -->
  <rect width="1000" height="600" fill="#0a0a0a"/>

  <!-- Title -->
  <text x="500" y="40" fill="#ffffff" font-size="28" text-anchor="middle" font-family="monospace" filter="url(#neon-glow)">Redis Architecture</text>

  <!-- Redis Core Server (Center) -->
  <rect x="400" y="200" width="200" height="160" rx="10" fill="none" stroke="#ff0000" stroke-width="2" filter="url(#neon-glow)"/>
  <text x="500" y="230" fill="#ffffff" font-size="18" text-anchor="middle">Redis Server</text>
  
  <!-- Redis Core Components -->
  <rect x="420" y="250" width="160" height="25" fill="none" stroke="#ff0000" stroke-width="1"/>
  <text x="500" y="267" fill="#ffffff" font-size="14" text-anchor="middle">Event Loop</text>
  
  <rect x="420" y="285" width="160" height="25" fill="none" stroke="#ff0000" stroke-width="1"/>
  <text x="500" y="302" fill="#ffffff" font-size="14" text-anchor="middle">In-Memory Dataset</text>
  
  <rect x="420" y="320" width="160" height="25" fill="none" stroke="#ff0000" stroke-width="1"/>
  <text x="500" y="337" fill="#ffffff" font-size="14" text-anchor="middle">Persistence</text>

  <!-- Clients (Left) -->
  <rect x="100" y="150" width="120" height="40" rx="5" fill="none" stroke="#ff0000" stroke-width="2" filter="url(#neon-glow)"/>
  <text x="160" y="175" fill="#ffffff" font-size="14" text-anchor="middle">Redis CLI</text>

  <rect x="100" y="220" width="120" height="40" rx="5" fill="none" stroke="#ff0000" stroke-width="2" filter="url(#neon-glow)"/>
  <text x="160" y="245" fill="#ffffff" font-size="14" text-anchor="middle">Applications</text>

  <rect x="100" y="290" width="120" height="40" rx="5" fill="none" stroke="#ff0000" stroke-width="2" filter="url(#neon-glow)"/>
  <text x="160" y="315" fill="#ffffff" font-size="14" text-anchor="middle">Redis Clients</text>

  <!-- Persistence (Bottom) -->
  <rect x="320" y="450" width="120" height="40" rx="5" fill="none" stroke="#ff0000" stroke-width="2" filter="url(#neon-glow)"/>
  <text x="380" y="475" fill="#ffffff" font-size="14" text-anchor="middle">RDB Files</text>

  <rect x="560" y="450" width="120" height="40" rx="5" fill="none" stroke="#ff0000" stroke-width="2" filter="url(#neon-glow)"/>
  <text x="620" y="475" fill="#ffffff" font-size="14" text-anchor="middle">AOF Files</text>

  <!-- Replication (Right) -->
  <rect x="780" y="150" width="120" height="40" rx="5" fill="none" stroke="#ff0000" stroke-width="2" filter="url(#neon-glow)"/>
  <text x="840" y="175" fill="#ffffff" font-size="14" text-anchor="middle">Replica 1</text>

  <rect x="780" y="220" width="120" height="40" rx="5" fill="none" stroke="#ff0000" stroke-width="2" filter="url(#neon-glow)"/>
  <text x="840" y="245" fill="#ffffff" font-size="14" text-anchor="middle">Replica 2</text>

  <rect x="780" y="290" width="120" height="40" rx="5" fill="none" stroke="#ff0000" stroke-width="2" filter="url(#neon-glow)"/>
  <text x="840" y="315" fill="#ffffff" font-size="14" text-anchor="middle">Replica N</text>

  <!-- Connection lines -->
  <!-- Client connections -->
  <path d="M220 170 H 400" stroke="#ffffff" stroke-width="2" marker-end="url(#arrowhead)"/>
  <path d="M220 240 H 400" stroke="#ffffff" stroke-width="2" marker-end="url(#arrowhead)"/>
  <path d="M220 310 H 400" stroke="#ffffff" stroke-width="2" marker-end="url(#arrowhead)"/>

  <!-- Persistence connections -->
  <path d="M380 360 L 380 450" stroke="#ffffff" stroke-width="2" stroke-dasharray="5,5" marker-end="url(#arrowhead)"/>
  <path d="M620 360 L 620 450" stroke="#ffffff" stroke-width="2" stroke-dasharray="5,5" marker-end="url(#arrowhead)"/>

  <!-- Replication connections -->
  <path d="M600 170 H 780" stroke="#ffffff" stroke-width="2" marker-end="url(#arrowhead)"/>
  <path d="M600 240 H 780" stroke="#ffffff" stroke-width="2" marker-end="url(#arrowhead)"/>
  <path d="M600 310 H 780" stroke="#ffffff" stroke-width="2" marker-end="url(#arrowhead)"/>

  <!-- Labels -->
  <text x="280" y="150" fill="#ffffff" font-size="12">TCP Connections</text>
  <text x="670" y="150" fill="#ffffff" font-size="12">Replication</text>
  <text x="380" y="410" fill="#ffffff" font-size="12">Snapshot</text>
  <text x="620" y="410" fill="#ffffff" font-size="12">Write Ahead</text>
</svg>
